# xmcd
#
# Track frame offsets: 
#        150
#        11566
#        28468
#        45490
#        57571
#        76101
#        87964
#        101027
#        113569
#        126518
#        139306
#        149858
#        160835
#        172211
#        189224
#        202413
#        215017
#        227830
#        237536
#        250994
#
# Disc length: 3560 seconds
#
# Revision: 0
# Processed by: cddbd v1.5.2PL0 Copyright (c) Steve Scherf et al.
# Submitted via: ExactAudioCopyFreeDBPlugin 1.0
#
DISCID=360de614
DTITLE=Big Tom - The Ultimate Collection Vol 1
DYEAR=2014
DGENRE=Country
TTITLE0=The Same Way You Came In
TTITLE1=GNR Steam Train
TTITLE2=Old Rustic Bridge By The Mill
TTITLE3=Mama's Roses
TTITLE4=Grandfather Clock
TTITLE5=Smoke Along The Track
TTITLE6=Farside Banks Of Jordan
TTITLE7=Gentle Mother
TTITLE8=Connemara Shore
TTITLE9=Let Me Go To Texas
TTITLE10=I Love You Still
TTITLE11=The Image Of Me
TTITLE12=The Old Account
TTITLE13=An Irish Nurse
TTITLE14=Four Country Roads
TTITLE15=Dim Lights
TTITLE16=4 Strong Winds
TTITLE17=Lonesome At Your Table
TTITLE18=Old Father Time
TTITLE19=My Donegal Shore
EXTD=
EXTT0=
EXTT1=
EXTT2=
EXTT3=
EXTT4=
EXTT5=
EXTT6=
EXTT7=
EXTT8=
EXTT9=
EXTT10=
EXTT11=
EXTT12=
EXTT13=
EXTT14=
EXTT15=
EXTT16=
EXTT17=
EXTT18=
EXTT19=
PLAYORDER=
